{
.appVersion = "3058";
.formatVersion = 3;
DisplayStrings = (
"o/_bar.a",
"/_bar.a",
a,
ob,
"/_bar.b",
"&",
"0",
A,
o,
oob,
B
);
classes = (
{
automatic = 1;
code = "a b c d e f g h i j k l m n o p q r s t u v w x y z f_h.liga f_i.liga f_j.liga f_l.liga f_m.liga f_n.liga";
name = Lowercase;
},
{
automatic = 1;
code = "A B C D E F G H I J K L M N O P Q R S T U V W X Y Z";
name = Uppercase;
}
);
date = "2021-06-11 15:09:22 +0000";
familyName = "Shinkai Mono";
featurePrefixes = (
{
automatic = 1;
code = "languagesystem DFLT dflt;
";
name = Languagesystems;
}
);
features = (
{
automatic = 1;
code = "lookupflag IgnoreMarks;
sub f h by f_h.liga;
sub f i by f_i.liga;
sub f j by f_j.liga;
sub f l by f_l.liga;
sub f m by f_m.liga;
sub f n by f_n.liga;
sub hyphen greater by hyphen_greater.liga;
sub less hyphen by less_hyphen.liga;
";
tag = liga;
},
{
code = "sub @Lowercase colon' @Lowercase by colon.case;";
tag = calt;
}
);
fontMaster = (
{
id = m01;
metricValues = (
{
over = 16;
pos = 800;
},
{
over = 16;
pos = 700;
},
{
over = 16;
pos = 500;
},
{
over = -16;
},
{
over = -16;
pos = -200;
}
);
name = Regular;
}
);
glyphs = (
{
category = Letter;
glyphname = A;
lastChange = "2021-06-13 13:07:51 +0000";
layers = (
{
layerId = m01;
shapes = (
{
closed = 1;
nodes = (
(164,186,l),
(336,186,l),
(376,0,l),
(456,0,l),
(349,467,l),
(295,700,l),
(205,700,l),
(44,0,l),
(124,0,l)
);
},
{
closed = 1;
nodes = (
(250,589,l),
(322,252,l),
(178,252,l)
);
}
);
width = 500;
}
);
subCategory = Letter;
unicode = 65;
},
{
category = Letter;
glyphname = B;
lastChange = "2021-06-13 13:07:51 +0000";
layers = (
{
layerId = m01;
shapes = (
{
closed = 1;
nodes = (
(137,634,l),
(273,634,o),
(354,629,o),
(354,520,cs),
(354,420,o),
(257,397,o),
(137,397,c)
);
},
{
closed = 1;
nodes = (
(335,349,o),
(423,383,o),
(423,525,cs),
(423,681,o),
(341,700,o),
(64,700,c),
(64,349,l)
);
},
{
closed = 1;
nodes = (
(137,331,l),
(290,331,o),
(379,324,o),
(379,194,cs),
(379,66,o),
(282,59,o),
(136,59,c)
);
},
{
closed = 1;
nodes = (
(350,0,o),
(447,-1,o),
(447,190,cs),
(447,370,o),
(351,380,o),
(64,380,c),
(64,0,l)
);
}
);
width = 500;
}
);
subCategory = Letter;
unicode = 66;
},
{
category = Letter;
glyphname = C;
lastChange = "2021-06-13 13:07:51 +0000";
layers = (
{
layerId = m01;
shapes = (
{
closed = 1;
nodes = (
(134,497,l),
(136,572,o),
(175,626,o),
(247,626,cs),
(316,626,o),
(364,586,o),
(366,482,c),
(443,482,l),
(443,592,o),
(379,700,o),
(250,700,cs),
(140,700,o),
(56,615,o),
(56,497,c)
);
},
{
closed = 1;
nodes = (
(56,85,o),
(140,0,o),
(250,0,cs),
(379,0,o),
(443,108,o),
(443,218,c),
(366,218,l),
(364,114,o),
(316,74,o),
(247,74,cs),
(175,74,o),
(136,128,o),
(134,203,c),
(56,203,l)
);
},
{
closed = 1;
nodes = (
(56,203,l),
(134,203,l),
(134,497,l),
(56,497,l)
);
}
);
width = 500;
}
);
subCategory = Letter;
unicode = 67;
},
{
category = Letter;
glyphname = D;
lastChange = "2021-06-13 13:07:51 +0000";
layers = (
{
layerId = m01;
shapes = (
{
closed = 1;
nodes = (
(142,633,l),
(242,633,o),
(369,629,o),
(366,350,cs),
(363,98,o),
(267,67,o),
(142,67,c)
);
},
{
closed = 1;
nodes = (
(206,0,o),
(443,-40,o),
(446,351,cs),
(449,722,o),
(209,701,o),
(64,701,c),
(64,0,l)
);
}
);
width = 500;
}
);
subCategory = Letter;
unicode = 68;
},
{
category = Letter;
glyphname = E;
lastChange = "2021-06-13 13:07:51 +0000";
layers = (
{
layerId = m01;
shapes = (
{
closed = 1;
nodes = (
(436,68,l),
(150,68,l),
(150,331,l),
(380,331,l),
(380,402,l),
(150,402,l),
(150,631,l),
(436,631,l),
(436,700,l),
(72,700,l),
(72,0,l),
(436,0,l)
);
}
);
width = 500;
}
);
subCategory = Letter;
unicode = 69;
},
{
category = Letter;
glyphname = F;
lastChange = "2021-06-13 13:07:51 +0000";
layers = (
{
layerId = m01;
shapes = (
{
closed = 1;
nodes = (
(174,336,l),
(380,336,l),
(380,407,l),
(174,407,l),
(174,631,l),
(436,631,l),
(436,700,l),
(96,700,l),
(96,0,l),
(174,0,l)
);
}
);
width = 500;
}
);
subCategory = Letter;
unicode = 70;
},
{
category = Letter;
glyphname = G;
lastChange = "2021-06-13 13:07:51 +0000";
layers = (
{
layerId = m01;
shapes = (
{
closed = 1;
nodes = (
(250,59,l),
(176,59,o),
(131,104,o),
(131,193,c),
(56,193,l),
(56,65,o),
(128,-11,o),
(250,-11,c)
);
},
{
closed = 1;
nodes = (
(436,379,l),
(246,379,l),
(246,305,l),
(358,305,l),
(358,129,l),
(359,129,l),
(342,82,o),
(303,59,o),
(250,59,c),
(250,-11,l),
(348,-11,o),
(414,38,o),
(436,124,c)
);
},
{
closed = 1;
nodes = (
(128,700,o),
(56,624,o),
(56,496,c),
(131,496,l),
(131,585,o),
(176,630,o),
(250,630,c),
(250,700,l)
);
},
{
closed = 1;
nodes = (
(250,630,l),
(324,630,o),
(369,585,o),
(369,496,c),
(444,496,l),
(444,624,o),
(372,700,o),
(250,700,c)
);
},
{
closed = 1;
nodes = (
(56,193,l),
(131,193,l),
(131,496,l),
(56,496,l)
);
},
{
closed = 1;
nodes = (
(359,129,l),
(358,129,l),
(436,124,l)
);
}
);
width = 500;
}
);
subCategory = Letter;
unicode = 71;
},
{
category = Letter;
glyphname = H;
lastChange = "2021-06-13 13:07:51 +0000";
layers = (
{
layerId = m01;
shapes = (
{
closed = 1;
nodes = (
(142,325,l),
(358,325,l),
(358,0,l),
(436,0,l),
(436,700,l),
(358,700,l),
(358,399,l),
(142,399,l),
(142,700,l),
(64,700,l),
(64,0,l),
(142,0,l)
);
}
);
width = 500;
}
);
subCategory = Letter;
unicode = 72;
},
{
category = Letter;
glyphname = I;
lastChange = "2021-06-13 13:07:51 +0000";
layers = (
{
layerId = m01;
shapes = (
{
closed = 1;
nodes = (
(415,70,l),
(289,70,l),
(289,630,l),
(415,630,l),
(415,699,l),
(86,699,l),
(86,630,l),
(211,630,l),
(211,70,l),
(86,70,l),
(86,1,l),
(415,1,l)
);
}
);
width = 500;
}
);
subCategory = Letter;
unicode = 73;
},
{
category = Letter;
glyphname = J;
lastChange = "2021-06-13 13:07:51 +0000";
layers = (
{
layerId = m01;
shapes = (
{
closed = 1;
nodes = (
(408,138,l),
(408,629,l),
(470,629,l),
(470,700,l),
(194,699,l),
(194,629,l),
(330,629,l),
(330,138,l)
);
},
{
closed = 1;
nodes = (
(350,-66,o),
(408,10,o),
(408,138,c),
(330,138,l),
(330,49,o),
(302,4,o),
(228,4,c),
(228,-66,l)
);
},
{
closed = 1;
nodes = (
(56,57,l),
(86,-18,o),
(140,-65,o),
(228,-66,c),
(228,4,l),
(174,4,o),
(141,44,o),
(124,90,c)
);
}
);
width = 500;
}
);
subCategory = Letter;
unicode = 74;
},
{
category = Letter;
glyphname = K;
lastChange = "2021-06-13 13:07:51 +0000";
layers = (
{
layerId = m01;
shapes = (
{
closed = 1;
nodes = (
(157,321,l),
(357,0,l),
(445,0,l),
(228,350,l),
(445,700,l),
(357,700,l),
(157,379,l),
(157,700,l),
(80,700,l),
(80,0,l),
(157,0,l)
);
}
);
width = 500;
}
);
subCategory = Letter;
unicode = 75;
},
{
category = Letter;
glyphname = L;
lastChange = "2021-06-13 13:07:51 +0000";
layers = (
{
layerId = m01;
shapes = (
{
closed = 1;
nodes = (
(444,70,l),
(174,70,l),
(174,699,l),
(96,699,l),
(96,1,l),
(444,1,l)
);
}
);
width = 500;
}
);
subCategory = Letter;
unicode = 76;
},
{
category = Letter;
glyphname = M;
lastChange = "2021-06-13 13:07:51 +0000";
layers = (
{
layerId = m01;
shapes = (
{
closed = 1;
nodes = (
(382,700,l),
(382,0,l),
(460,0,l),
(460,700,l)
);
},
{
closed = 1;
nodes = (
(40,700,l),
(40,0,l),
(118,0,l),
(118,700,l)
);
},
{
closed = 1;
nodes = (
(382,700,l),
(220,214,l),
(298,214,l),
(460,700,l)
);
},
{
closed = 1;
nodes = (
(40,700,l),
(211,214,l),
(289,214,l),
(118,700,l)
);
}
);
width = 500;
}
);
subCategory = Letter;
unicode = 77;
},
{
category = Letter;
glyphname = N;
lastChange = "2021-06-13 13:07:51 +0000";
layers = (
{
layerId = m01;
shapes = (
{
closed = 1;
nodes = (
(133,574,l),
(340,0,l),
(436,0,l),
(436,700,l),
(358,700,l),
(367,126,l),
(160,700,l),
(64,700,l),
(64,0,l),
(142,0,l)
);
}
);
width = 500;
}
);
subCategory = Letter;
unicode = 78;
},
{
category = Letter;
glyphname = O;
lastChange = "2021-06-13 13:07:51 +0000";
layers = (
{
layerId = m01;
shapes = (
{
closed = 1;
nodes = (
(250,59,l),
(176,59,o),
(131,104,o),
(131,193,c),
(56,193,l),
(56,65,o),
(128,-11,o),
(250,-11,c)
);
},
{
closed = 1;
nodes = (
(372,-11,o),
(444,65,o),
(444,193,c),
(369,193,l),
(369,104,o),
(324,59,o),
(250,59,c),
(250,-11,l)
);
},
{
closed = 1;
nodes = (
(128,700,o),
(56,624,o),
(56,496,c),
(131,496,l),
(131,585,o),
(176,630,o),
(250,630,c),
(250,700,l)
);
},
{
closed = 1;
nodes = (
(250,630,l),
(324,630,o),
(369,585,o),
(369,496,c),
(444,496,l),
(444,624,o),
(372,700,o),
(250,700,c)
);
},
{
closed = 1;
nodes = (
(56,193,l),
(131,193,l),
(131,496,l),
(56,496,l)
);
},
{
closed = 1;
nodes = (
(369,193,l),
(444,193,l),
(444,496,l),
(369,496,l)
);
}
);
width = 500;
}
);
subCategory = Letter;
unicode = 79;
},
{
category = Letter;
glyphname = P;
lastChange = "2021-06-13 13:07:51 +0000";
layers = (
{
layerId = m01;
shapes = (
{
closed = 1;
nodes = (
(157,636,l),
(297,636,o),
(381,633,o),
(381,499,cs),
(381,369,o),
(292,364,o),
(158,364,c)
);
},
{
closed = 1;
nodes = (
(314,304,o),
(452,303,o),
(452,501,cs),
(452,714,o),
(283,700,o),
(157,700,c),
(157,304,l)
);
},
{
closed = 1;
nodes = (
(89,0,l),
(159,0,l),
(157,700,l),
(87,700,l)
);
}
);
width = 500;
}
);
subCategory = Letter;
unicode = 80;
},
{
category = Letter;
glyphname = Q;
lastChange = "2021-06-13 13:07:51 +0000";
layers = (
{
layerId = m01;
shapes = (
{
closed = 1;
nodes = (
(281,21,o),
(340,-69,o),
(461,-41,c),
(476,-104,l),
(301,-146,o),
(290,-50,o),
(190,-78,c),
(178,-13,l)
);
},
{
closed = 1;
nodes = (
(250,76,l),
(176,76,o),
(131,121,o),
(131,210,c),
(56,210,l),
(56,82,o),
(128,6,o),
(250,6,c)
);
},
{
closed = 1;
nodes = (
(372,6,o),
(444,82,o),
(444,210,c),
(369,210,l),
(369,121,o),
(324,76,o),
(250,76,c),
(250,6,l)
);
},
{
closed = 1;
nodes = (
(128,700,o),
(56,624,o),
(56,496,c),
(131,496,l),
(131,585,o),
(176,630,o),
(250,630,c),
(250,700,l)
);
},
{
closed = 1;
nodes = (
(250,630,l),
(324,630,o),
(369,585,o),
(369,496,c),
(444,496,l),
(444,624,o),
(372,700,o),
(250,700,c)
);
},
{
closed = 1;
nodes = (
(56,210,l),
(131,210,l),
(131,496,l),
(56,496,l)
);
},
{
closed = 1;
nodes = (
(369,210,l),
(444,210,l),
(444,496,l),
(369,496,l)
);
}
);
width = 500;
}
);
subCategory = Letter;
unicode = 81;
},
{
category = Letter;
glyphname = R;
lastChange = "2021-06-13 13:07:51 +0000";
layers = (
{
layerId = m01;
shapes = (
{
closed = 1;
nodes = (
(136,636,l),
(276,636,o),
(365,633,o),
(365,499,cs),
(365,369,o),
(271,364,o),
(137,364,c)
);
},
{
closed = 1;
nodes = (
(293,304,o),
(442,303,o),
(442,501,cs),
(442,714,o),
(262,700,o),
(136,700,c),
(136,304,l)
);
},
{
closed = 1;
nodes = (
(68,0,l),
(138,0,l),
(136,700,l),
(66,700,l)
);
},
{
closed = 1;
nodes = (
(378,1,l),
(463,1,l),
(294,332,l),
(209,332,l)
);
}
);
width = 500;
}
);
subCategory = Letter;
unicode = 82;
},
{
category = Letter;
glyphname = S;
lastChange = "2021-06-13 13:07:51 +0000";
layers = (
{
layerId = m01;
shapes = (
{
closed = 1;
nodes = (
(250,59,l),
(176,59,o),
(131,80,o),
(131,169,c),
(56,169,l),
(56,41,o),
(128,-11,o),
(250,-11,c)
);
},
{
closed = 1;
nodes = (
(372,-11,o),
(445,65,o),
(445,193,c),
(369,193,l),
(369,104,o),
(324,59,o),
(250,59,c),
(250,-11,l)
);
},
{
closed = 1;
nodes = (
(128,700,o),
(62,631,o),
(62,503,c),
(138,503,l),
(138,592,o),
(176,630,o),
(250,630,c),
(250,700,l)
);
},
{
closed = 1;
nodes = (
(250,630,l),
(324,630,o),
(369,605,o),
(369,516,c),
(444,516,l),
(444,644,o),
(372,700,o),
(250,700,c)
);
},
{
closed = 1;
nodes = (
(63,432,o),
(128,353,o),
(236,313,cs),
(295,291,o),
(369,222,o),
(369,193,c),
(445,193,l),
(445,226,o),
(409,322,o),
(249,392,cs),
(181,422,o),
(139,468,o),
(138,503,c),
(62,503,l)
);
}
);
width = 500;
}
);
subCategory = Letter;
unicode = 83;
},
{
category = Letter;
glyphname = T;
lastChange = "2021-06-13 13:07:51 +0000";
layers = (
{
layerId = m01;
shapes = (
{
closed = 1;
nodes = (
(289,627,l),
(448,627,l),
(448,700,l),
(52,700,l),
(52,627,l),
(211,627,l),
(211,0,l),
(289,0,l)
);
}
);
width = 500;
}
);
subCategory = Letter;
unicode = 84;
},
{
category = Letter;
glyphname = U;
lastChange = "2021-06-13 13:07:51 +0000";
layers = (
{
layerId = m01;
shapes = (
{
closed = 1;
nodes = (
(251,64,l),
(180,64,o),
(138,109,o),
(138,198,c),
(67,198,l),
(67,70,o),
(135,-6,o),
(251,-6,c)
);
},
{
closed = 1;
nodes = (
(366,-6,o),
(433,70,o),
(433,198,c),
(363,198,l),
(363,109,o),
(320,64,o),
(251,64,c),
(251,-6,l)
);
},
{
closed = 1;
nodes = (
(67,198,l),
(138,198,l),
(138,700,l),
(67,700,l)
);
},
{
closed = 1;
nodes = (
(363,198,l),
(433,198,l),
(434,700,l),
(363,700,l)
);
}
);
width = 500;
}
);
subCategory = Letter;
unicode = 85;
},
{
category = Letter;
glyphname = V;
lastChange = "2021-06-13 13:07:51 +0000";
layers = (
{
layerId = m01;
shapes = (
{
closed = 1;
nodes = (
(456,700,l),
(376,700,l),
(276,233,ls),
(269,203,o),
(256,142,o),
(250,111,q),
(244,142,o),
(231,203,o),
(224,233,qs),
(124,700,l),
(44,700,l),
(205,0,l),
(295,0,l)
);
}
);
width = 500;
}
);
subCategory = Letter;
unicode = 86;
},
{
category = Letter;
glyphname = W;
lastChange = "2021-06-13 13:07:51 +0000";
layers = (
{
layerId = m01;
shapes = (
{
closed = 1;
nodes = (
(460,700,l),
(382,700,l),
(321,0,l),
(399,0,l)
);
},
{
closed = 1;
nodes = (
(118,700,l),
(40,700,l),
(101,0,l),
(179,0,l)
);
},
{
closed = 1;
nodes = (
(298,486,l),
(220,486,l),
(321,0,l),
(399,0,l)
);
},
{
closed = 1;
nodes = (
(289,486,l),
(211,486,l),
(101,0,l),
(179,0,l)
);
}
);
width = 500;
}
);
subCategory = Letter;
unicode = 87;
},
{
category = Letter;
glyphname = X;
lastChange = "2021-06-13 13:07:51 +0000";
layers = (
{
layerId = m01;
shapes = (
{
closed = 1;
nodes = (
(250,262,l),
(370,0,l),
(455,0,l),
(291,350,l),
(455,700,l),
(370,700,l),
(250,438,l),
(130,700,l),
(45,700,l),
(209,350,l),
(45,0,l),
(130,0,l)
);
}
);
width = 500;
}
);
subCategory = Letter;
unicode = 88;
},
{
category = Letter;
glyphname = Y;
lastChange = "2021-06-13 13:07:51 +0000";
layers = (
{
layerId = m01;
shapes = (
{
closed = 1;
nodes = (
(289,277,l),
(457,700,l),
(374,700,l),
(250,382,l),
(126,700,l),
(43,700,l),
(211,277,l),
(211,0,l),
(289,0,l)
);
}
);
width = 500;
}
);
subCategory = Letter;
unicode = 89;
},
{
category = Letter;
glyphname = Z;
lastChange = "2021-06-13 13:07:51 +0000";
layers = (
{
layerId = m01;
shapes = (
{
closed = 1;
nodes = (
(436,71,l),
(153,71,l),
(436,629,l),
(436,699,l),
(64,699,l),
(64,629,l),
(347,629,l),
(64,71,l),
(64,1,l),
(436,1,l)
);
}
);
width = 500;
}
);
subCategory = Letter;
unicode = 90;
},
{
category = Letter;
glyphname = c;
lastChange = "2021-06-13 13:07:23 +0000";
layers = (
{
layerId = m01;
shapes = (
{
closed = 1;
nodes = (
(376,192,l),
(367,105,o),
(332,61,o),
(261,61,cs),
(177,61,o),
(144,124,o),
(144,244,cs),
(144,371,o),
(178,426,o),
(261,426,cs),
(321,426,o),
(355,398,o),
(370,335,c),
(450,335,l),
(432,449,o),
(373,499,o),
(258,499,cs),
(119,499,o),
(61,423,o),
(61,245,cs),
(61,79,o),
(117,-8,o),
(258,-8,cs),
(384,-8,o),
(443,58,o),
(454,192,c)
);
}
);
width = 500;
}
);
subCategory = Lowercase;
unicode = 99;
},
{
category = Letter;
glyphname = d;
lastChange = "2021-06-13 13:07:23 +0000";
layers = (
{
layerId = m01;
shapes = (
{
closed = 1;
nodes = (
(457,708,l),
(379,708,l),
(379,4,l),
(457,4,l)
);
},
{
closed = 1;
nodes = (
(177,61,o),
(144,124,o),
(144,244,cs),
(144,371,o),
(178,426,o),
(261,426,cs),
(345,426,o),
(378,371,o),
(378,244,cs),
(378,122,o),
(345,61,o),
(261,61,cs)
);
},
{
closed = 1;
nodes = (
(400,-8,o),
(456,76,o),
(456,245,cs),
(456,423,o),
(400,499,o),
(258,499,cs),
(119,499,o),
(61,423,o),
(61,245,cs),
(61,79,o),
(117,-8,o),
(258,-8,cs)
);
}
);
width = 500;
}
);
subCategory = Lowercase;
unicode = 100;
},
{
category = Letter;
glyphname = e;
lastChange = "2021-06-13 13:07:23 +0000";
layers = (
{
layerId = m01;
shapes = (
{
closed = 1;
nodes = (
(455,212,l),
(456,224,o),
(456,232,o),
(456,245,cs),
(456,423,o),
(400,499,o),
(258,499,cs),
(119,499,o),
(61,423,o),
(61,245,cs),
(61,79,o),
(117,-8,o),
(258,-8,cs),
(369,-8,o),
(428,44,o),
(448,147,c),
(368,147,l),
(352,90,o),
(319,61,o),
(261,61,cs),
(177,61,o),
(144,124,o),
(144,244,cs),
(144,371,o),
(178,426,o),
(261,426,cs),
(345,426,o),
(378,371,o),
(378,244,cs),
(378,231,o),
(378,223,o),
(377,212,c)
);
},
{
closed = 1;
nodes = (
(116,212,l),
(426,212,l),
(426,283,l),
(116,283,l)
);
}
);
width = 500;
}
);
subCategory = Lowercase;
unicode = 101;
},
{
category = Letter;
glyphname = f;
lastChange = "2021-06-13 13:07:23 +0000";
layers = (
{
layerId = m01;
shapes = (
{
closed = 1;
nodes = (
(441,430,l),
(441,500,l),
(69,500,l),
(69,430,l)
);
},
{
closed = 1;
nodes = (
(131,-194,o),
(174,-187,o),
(214,-169,o),
(249,-139,o),
(273,-101,o),
(287,-60,o),
(291,-39,q),
(298,569,l),
(301,588,o),
(317,624,o),
(345,652,o),
(383,665,o),
(402,665,qs),
(472,665,l),
(472,735,l),
(402,735,ls),
(381,735,o),
(338,728,o),
(298,710,o),
(263,680,o),
(239,642,o),
(225,601,o),
(222,580,q),
(214,-28,l),
(211,-47,o),
(196,-83,o),
(167,-111,o),
(129,-124,o),
(110,-124,qs),
(40,-124,l),
(40,-194,l),
(110,-194,ls)
);
}
);
width = 500;
}
);
subCategory = Lowercase;
unicode = 102;
},
{
category = Letter;
glyphname = g;
lastChange = "2021-06-13 13:07:23 +0000";
layers = (
{
layerId = m01;
shapes = (
{
closed = 1;
nodes = (
(456,51,l),
(457,500,l),
(379,500,l),
(378,51,l)
);
},
{
closed = 1;
nodes = (
(177,61,o),
(144,124,o),
(144,244,cs),
(144,371,o),
(178,426,o),
(261,426,cs),
(345,426,o),
(378,371,o),
(378,244,cs),
(378,122,o),
(345,61,o),
(261,61,cs)
);
},
{
closed = 1;
nodes = (
(400,-8,o),
(456,76,o),
(456,245,cs),
(456,423,o),
(400,499,o),
(258,499,cs),
(119,499,o),
(61,423,o),
(61,245,cs),
(61,79,o),
(117,-8,o),
(258,-8,cs)
);
},
{
closed = 1;
nodes = (
(115,-146,l),
(146,-182,o),
(193,-200,o),
(258,-200,cs),
(400,-200,o),
(456,-116,o),
(456,53,c),
(378,52,l),
(378,-70,o),
(345,-131,o),
(261,-131,cs),
(220,-131,o),
(191,-116,o),
(173,-87,c)
);
}
);
width = 500;
}
);
subCategory = Lowercase;
unicode = 103;
},
{
category = Letter;
glyphname = h;
lastChange = "2021-06-13 13:07:23 +0000";
layers = (
{
layerId = m01;
shapes = (
{
closed = 1;
nodes = (
(142,696,l),
(64,696,l),
(64,0,l),
(142,0,l)
);
},
{
closed = 1;
nodes = (
(250,500,qs),
(224,500,o),
(171,489,o),
(126,461,o),
(92,420,o),
(72,371,o),
(64,318,o),
(64,292,qs),
(64,-8,l),
(142,-8,l),
(142,292,ls),
(142,309,o),
(146,342,o),
(156,373,o),
(175,401,o),
(201,421,o),
(233,430,o),
(250,430,qs),
(267,430,o),
(299,421,o),
(325,401,o),
(344,373,o),
(354,342,o),
(358,309,o),
(358,292,qs),
(358,-8,l),
(436,-8,l),
(436,292,ls),
(436,318,o),
(428,371,o),
(408,420,o),
(374,461,o),
(329,489,o),
(276,500,o)
);
}
);
width = 500;
}
);
subCategory = Lowercase;
unicode = 104;
},
{
category = Letter;
glyphname = i;
lastChange = "2021-06-13 13:07:23 +0000";
layers = (
{
layerId = m01;
shapes = (
{
closed = 1;
nodes = (
(294,587,o),
(320,615,o),
(320,651,cs),
(320,687,o),
(294,713,o),
(258,713,cs),
(221,713,o),
(194,687,o),
(194,651,cs),
(194,615,o),
(221,587,o),
(258,587,cs)
);
},
{
closed = 1;
nodes = (
(90,430,l),
(221,430,l),
(221,251,l),
(299,251,l),
(299,500,l),
(90,500,l)
);
},
{
closed = 1;
nodes = (
(419,72,l),
(297,73,o),
(299,104,o),
(299,256,c),
(221,257,l),
(221,88,o),
(223,0,o),
(419,4,c)
);
}
);
width = 500;
}
);
subCategory = Lowercase;
unicode = 105;
},
{
category = Letter;
glyphname = j;
lastChange = "2021-06-13 13:07:23 +0000";
layers = (
{
layerId = m01;
shapes = (
{
closed = 1;
nodes = (
(309,586,o),
(335,614,o),
(335,650,cs),
(335,686,o),
(309,712,o),
(273,712,cs),
(236,712,o),
(209,686,o),
(209,650,cs),
(209,614,o),
(236,586,o),
(273,586,cs)
);
},
{
closed = 1;
nodes = (
(278,-200,o),
(330,-119,o),
(332,54,c),
(254,54,l),
(254,-68,o),
(219,-130,o),
(135,-131,c),
(135,-199,l)
);
},
{
closed = 1;
nodes = (
(146,430,l),
(254,430,l),
(254,54,l),
(332,54,l),
(332,500,l),
(147,500,l)
);
}
);
width = 500;
}
);
subCategory = Lowercase;
unicode = 106;
},
{
category = Letter;
glyphname = k;
lastChange = "2021-06-13 13:07:23 +0000";
layers = (
{
layerId = m01;
shapes = (
{
closed = 1;
nodes = (
(157,217,l),
(204,217,l),
(353,0,l),
(443,0,l),
(271,250,l),
(443,500,l),
(353,500,l),
(204,288,l),
(157,288,l),
(157,694,l),
(80,694,l),
(80,0,l),
(157,0,l)
);
}
);
width = 500;
}
);
subCategory = Lowercase;
unicode = 107;
},
{
category = Letter;
glyphname = l;
lastChange = "2021-06-13 13:07:23 +0000";
layers = (
{
layerId = m01;
shapes = (
{
closed = 1;
nodes = (
(304,256,l),
(305,687,l),
(91,687,l),
(91,617,l),
(227,617,l),
(226,256,l)
);
},
{
closed = 1;
nodes = (
(424,72,l),
(302,73,o),
(304,103,o),
(304,256,c),
(226,257,l),
(226,88,o),
(228,0,o),
(424,4,c)
);
}
);
width = 500;
}
);
subCategory = Lowercase;
unicode = 108;
},
{
category = Letter;
glyphname = m;
lastChange = "2021-06-13 13:07:23 +0000";
layers = (
{
layerId = m01;
shapes = (
{
closed = 1;
nodes = (
(154,383,o),
(170,433,o),
(192,433,cs),
(213,433,o),
(229,383,o),
(229,322,c),
(154,322,l)
);
},
{
closed = 1;
nodes = (
(460,322,l),
(382,322,l),
(382,0,l),
(460,0,l)
);
},
{
closed = 1;
nodes = (
(307,322,l),
(229,322,l),
(229,0,l),
(307,0,l)
);
},
{
closed = 1;
nodes = (
(307,322,l),
(307,421,o),
(251,500,o),
(192,500,cs),
(132,500,o),
(76,421,o),
(76,322,c)
);
},
{
closed = 1;
nodes = (
(307,383,o),
(323,433,o),
(345,433,cs),
(366,433,o),
(382,383,o),
(382,322,c),
(307,322,l)
);
},
{
closed = 1;
nodes = (
(460,322,l),
(460,421,o),
(404,500,o),
(345,500,cs),
(285,500,o),
(229,421,o),
(229,322,c)
);
},
{
closed = 1;
nodes = (
(154,322,l),
(76,322,l),
(77,-1,l),
(156,0,l)
);
},
{
closed = 1;
nodes = (
(149,379,o),
(128,439,o),
(84,492,c),
(29,454,l),
(68,400,o),
(76,373,o),
(76,322,c),
(154,322,l)
);
}
);
width = 500;
}
);
subCategory = Lowercase;
unicode = 109;
},
{
category = Letter;
glyphname = n;
lastChange = "2021-06-13 13:07:23 +0000";
layers = (
{
layerId = m01;
shapes = (
{
closed = 1;
nodes = (
(151,322,l),
(73,322,l),
(73,0,l),
(151,0,l)
);
},
{
closed = 1;
nodes = (
(151,383,o),
(199,433,o),
(259,433,cs),
(318,433,o),
(366,383,o),
(366,322,c),
(151,322,l)
);
},
{
closed = 1;
nodes = (
(444,322,l),
(444,421,o),
(361,501,o),
(259,501,cs),
(156,501,o),
(73,421,o),
(73,322,c)
);
},
{
closed = 1;
nodes = (
(444,322,l),
(366,322,l),
(366,0,l),
(444,0,l)
);
},
{
closed = 1;
nodes = (
(146,379,o),
(125,439,o),
(81,492,c),
(26,454,l),
(65,400,o),
(73,373,o),
(73,322,c),
(151,322,l)
);
}
);
width = 500;
}
);
subCategory = Lowercase;
unicode = 110;
},
{
category = Letter;
glyphname = o;
lastChange = "2021-06-13 14:11:06 +0000";
layers = (
{
anchors = (
{
name = abar;
pos = (410,249);
},
{
name = bbar;
pos = (131,250);
}
);
layerId = m01;
shapes = (
{
closed = 1;
nodes = (
(166,65,o),
(131,126,o),
(131,250,cs),
(131,376,o),
(167,434,o),
(250,434,cs),
(334,434,o),
(369,376,o),
(369,249,cs),
(369,126,o),
(334,65,o),
(250,65,cs)
);
},
{
closed = 1;
nodes = (
(392,-3,o),
(449,79,o),
(449,249,cs),
(449,434,o),
(388,504,o),
(250,504,cs),
(112,504,o),
(51,434,o),
(51,250,cs),
(51,79,o),
(108,-3,o),
(250,-3,cs)
);
}
);
width = 500;
}
);
subCategory = Lowercase;
unicode = 111;
},
{
category = Letter;
glyphname = p;
lastChange = "2021-06-13 13:07:23 +0000";
layers = (
{
layerId = m01;
shapes = (
{
closed = 1;
nodes = (
(142,499,l),
(64,499,l),
(64,-205,l),
(142,-205,l)
);
},
{
closed = 1;
nodes = (
(177,61,o),
(144,124,o),
(144,244,cs),
(144,371,o),
(178,426,o),
(261,426,cs),
(345,426,o),
(378,371,o),
(378,244,cs),
(378,122,o),
(345,61,o),
(261,61,cs)
);
},
{
closed = 1;
nodes = (
(400,-8,o),
(456,76,o),
(456,245,cs),
(456,423,o),
(400,499,o),
(258,499,cs),
(119,499,o),
(61,423,o),
(61,245,cs),
(61,79,o),
(117,-8,o),
(258,-8,cs)
);
}
);
width = 500;
}
);
subCategory = Lowercase;
unicode = 112;
},
{
category = Letter;
glyphname = q;
lastChange = "2021-06-13 13:07:23 +0000";
layers = (
{
layerId = m01;
shapes = (
{
closed = 1;
nodes = (
(455,500,l),
(377,500,l),
(377,-199,l),
(455,-199,l)
);
},
{
closed = 1;
nodes = (
(177,61,o),
(144,124,o),
(144,244,cs),
(144,371,o),
(178,426,o),
(261,426,cs),
(345,426,o),
(378,371,o),
(378,244,cs),
(378,122,o),
(345,61,o),
(261,61,cs)
);
},
{
closed = 1;
nodes = (
(400,-8,o),
(456,76,o),
(456,245,cs),
(456,423,o),
(400,499,o),
(258,499,cs),
(119,499,o),
(61,423,o),
(61,245,cs),
(61,79,o),
(117,-8,o),
(258,-8,cs)
);
}
);
width = 500;
}
);
subCategory = Lowercase;
unicode = 113;
},
{
category = Letter;
glyphname = r;
lastChange = "2021-06-13 13:07:23 +0000";
layers = (
{
layerId = m01;
shapes = (
{
closed = 1;
nodes = (
(198,500,l),
(120,500,l),
(124,0,l),
(194,0,l)
);
},
{
closed = 1;
nodes = (
(453,454,l),
(422,486,o),
(377,500,o),
(315,500,cs),
(176,500,o),
(122,424,o),
(122,246,c),
(196,245,l),
(196,372,o),
(235,429,o),
(318,429,cs),
(352,429,o),
(380,420,o),
(398,399,c)
);
}
);
width = 500;
}
);
subCategory = Lowercase;
unicode = 114;
},
{
category = Letter;
glyphname = s;
lastChange = "2021-06-13 13:07:23 +0000";
layers = (
{
layerId = m01;
shapes = (
{
closed = 1;
nodes = (
(446,355,l),
(423,453,o),
(359,498,o),
(258,499,cs),
(92,501,o),
(-21,322,o),
(159,244,c),
(359,245,l),
(287,269,o),
(245,280,o),
(190,303,cs),
(111,336,o),
(143,426,o),
(243,426,cs),
(322,426,o),
(355,398,o),
(370,336,c)
);
},
{
closed = 1;
nodes = (
(72,134,l),
(95,36,o),
(159,-9,o),
(260,-10,cs),
(426,-12,o),
(539,167,o),
(359,245,c),
(159,244,l),
(231,220,o),
(273,209,o),
(328,186,cs),
(407,153,o),
(375,63,o),
(275,63,cs),
(196,63,o),
(163,91,o),
(148,153,c)
);
}
);
width = 500;
}
);
subCategory = Lowercase;
unicode = 115;
},
{
category = Letter;
glyphname = t;
lastChange = "2021-06-13 13:07:23 +0000";
layers = (
{
layerId = m01;
shapes = (
{
closed = 1;
nodes = (
(260,249,l),
(260,427,l),
(427,427,l),
(427,500,l),
(260,497,l),
(260,702,l),
(182,702,l),
(182,497,l),
(55,497,l),
(55,427,l),
(182,427,l),
(182,249,l)
);
},
{
closed = 1;
nodes = (
(422,92,l),
(406,73,o),
(386,67,o),
(352,67,cs),
(268,67,o),
(260,129,o),
(260,249,c),
(182,250,l),
(184,84,o),
(208,-2,o),
(349,-2,cs),
(408,-2,o),
(441,14,o),
(468,44,c)
);
}
);
width = 500;
}
);
subCategory = Lowercase;
unicode = 116;
},
{
category = Letter;
glyphname = u;
lastChange = "2021-06-13 13:07:23 +0000";
layers = (
{
layerId = m01;
shapes = (
{
closed = 1;
nodes = (
(436,496,l),
(358,496,l),
(358,-3,l),
(436,-3,l)
);
},
{
closed = 1;
nodes = (
(361,244,l),
(361,122,o),
(330,61,o),
(250,61,cs),
(171,61,o),
(141,124,o),
(141,244,c),
(63,245,l),
(63,79,o),
(114,-8,o),
(247,-8,cs),
(382,-8,o),
(434,76,o),
(434,245,c)
);
},
{
closed = 1;
nodes = (
(143,500,l),
(65,500,l),
(63,245,l),
(141,244,l)
);
}
);
width = 500;
}
);
subCategory = Lowercase;
unicode = 117;
},
{
category = Letter;
glyphname = v;
lastChange = "2021-06-13 13:07:23 +0000";
layers = (
{
layerId = m01;
shapes = (
{
closed = 1;
nodes = (
(456,500,l),
(374,500,l),
(274,167,ls),
(268,146,o),
(256,105,o),
(250,85,q),
(244,105,o),
(232,146,o),
(226,167,qs),
(126,500,l),
(44,500,l),
(205,0,l),
(295,0,l)
);
}
);
width = 500;
}
);
subCategory = Lowercase;
unicode = 118;
},
{
category = Letter;
glyphname = w;
lastChange = "2021-06-13 13:07:23 +0000";
layers = (
{
layerId = m01;
shapes = (
{
closed = 1;
nodes = (
(249,371,l),
(306,1,l),
(383,1,l),
(467,499,l),
(388,499,l),
(344,104,l),
(288,499,l),
(210,499,l),
(155,104,l),
(110,499,l),
(31,499,l),
(117,1,l),
(194,1,l)
);
}
);
width = 500;
}
);
subCategory = Lowercase;
unicode = 119;
},
{
category = Letter;
glyphname = x;
lastChange = "2021-06-13 13:07:23 +0000";
layers = (
{
layerId = m01;
shapes = (
{
closed = 1;
nodes = (
(454,1,l),
(137,499,l),
(46,499,l),
(363,1,l)
);
},
{
closed = 1;
nodes = (
(454,499,l),
(363,499,l),
(46,1,l),
(137,1,l)
);
}
);
width = 500;
}
);
subCategory = Lowercase;
unicode = 120;
},
{
category = Letter;
glyphname = y;
lastChange = "2021-06-13 13:07:23 +0000";
layers = (
{
layerId = m01;
shapes = (
{
closed = 1;
nodes = (
(449,500,l),
(368,500,l),
(144,-200,l),
(225,-200,l)
);
},
{
closed = 1;
nodes = (
(255,98,l),
(132,500,l),
(51,500,l),
(210,-1,l)
);
}
);
width = 500;
}
);
subCategory = Lowercase;
unicode = 121;
},
{
category = Letter;
glyphname = z;
lastChange = "2021-06-13 13:07:23 +0000";
layers = (
{
layerId = m01;
shapes = (
{
closed = 1;
nodes = (
(436,70,l),
(164,70,l),
(436,430,l),
(436,500,l),
(64,500,l),
(64,430,l),
(336,430,l),
(64,70,l),
(64,0,l),
(436,0,l)
);
}
);
width = 500;
}
);
subCategory = Lowercase;
unicode = 122;
},
{
category = Letter;
glyphname = f_h.liga;
lastChange = "2021-06-13 13:06:54 +0000";
layers = (
{
layerId = m01;
shapes = (
{
closed = 1;
nodes = (
(441,430,l),
(441,500,l),
(69,500,l),
(69,430,l)
);
},
{
closed = 1;
nodes = (
(131,-194,o),
(174,-187,o),
(214,-169,o),
(249,-139,o),
(273,-101,o),
(287,-60,o),
(291,-39,q),
(298,569,l),
(301,588,o),
(317,624,o),
(345,652,o),
(397,667,o),
(416,664,qs),
(642,626,l),
(642,696,l),
(418,732,ls),
(397,735,o),
(338,728,o),
(298,710,o),
(263,680,o),
(239,642,o),
(225,601,o),
(222,580,q),
(214,-28,l),
(211,-47,o),
(196,-83,o),
(167,-111,o),
(129,-124,o),
(110,-124,qs),
(40,-124,l),
(40,-194,l),
(110,-194,ls)
);
},
{
closed = 1;
nodes = (
(642,696,l),
(564,696,l),
(564,0,l),
(642,0,l)
);
},
{
closed = 1;
nodes = (
(750,500,qs),
(724,500,o),
(671,489,o),
(626,461,o),
(592,420,o),
(572,371,o),
(564,318,o),
(564,292,qs),
(564,-8,l),
(642,-8,l),
(642,292,ls),
(642,309,o),
(646,342,o),
(656,373,o),
(675,401,o),
(701,421,o),
(733,430,o),
(750,430,qs),
(767,430,o),
(799,421,o),
(825,401,o),
(844,373,o),
(854,342,o),
(858,309,o),
(858,292,qs),
(858,-8,l),
(936,-8,l),
(936,292,ls),
(936,318,o),
(928,371,o),
(908,420,o),
(874,461,o),
(829,489,o),
(776,500,o)
);
}
);
width = 1000;
}
);
subCategory = Ligature;
},
{
category = Letter;
glyphname = f_i.liga;
lastChange = "2021-06-13 13:06:54 +0000";
layers = (
{
layerId = m01;
shapes = (
{
closed = 1;
nodes = (
(131,-194,o),
(174,-187,o),
(214,-169,o),
(249,-139,o),
(273,-101,o),
(287,-60,o),
(291,-39,q),
(298,569,l),
(301,588,o),
(317,624,o),
(345,652,o),
(383,665,o),
(402,665,qs),
(472,665,l),
(472,735,l),
(402,735,ls),
(381,735,o),
(338,728,o),
(298,710,o),
(263,680,o),
(239,642,o),
(225,601,o),
(222,580,q),
(214,-28,l),
(211,-47,o),
(196,-83,o),
(167,-111,o),
(129,-124,o),
(110,-124,qs),
(40,-124,l),
(40,-194,l),
(110,-194,ls)
);
},
{
closed = 1;
nodes = (
(794,587,o),
(820,615,o),
(820,651,cs),
(820,687,o),
(794,713,o),
(758,713,cs),
(721,713,o),
(694,687,o),
(694,651,cs),
(694,615,o),
(721,587,o),
(758,587,cs)
);
},
{
closed = 1;
nodes = (
(69,430,l),
(721,430,l),
(721,251,l),
(799,251,l),
(799,500,l),
(69,500,l)
);
},
{
closed = 1;
nodes = (
(919,72,l),
(797,73,o),
(798,104,o),
(799,256,c),
(721,257,l),
(721,88,o),
(723,0,o),
(919,4,c)
);
}
);
width = 1000;
}
);
subCategory = Ligature;
},
{
category = Letter;
glyphname = f_j.liga;
lastChange = "2021-06-13 13:06:54 +0000";
layers = (
{
layerId = m01;
shapes = (
{
closed = 1;
nodes = (
(131,-194,o),
(174,-187,o),
(214,-169,o),
(249,-139,o),
(273,-101,o),
(287,-60,o),
(291,-39,q),
(298,569,l),
(301,588,o),
(317,624,o),
(345,652,o),
(383,665,o),
(402,665,qs),
(472,665,l),
(472,735,l),
(402,735,ls),
(381,735,o),
(338,728,o),
(298,710,o),
(263,680,o),
(239,642,o),
(225,601,o),
(222,580,q),
(214,-28,l),
(211,-47,o),
(196,-83,o),
(167,-111,o),
(129,-124,o),
(110,-124,qs),
(40,-124,l),
(40,-194,l),
(110,-194,ls)
);
},
{
closed = 1;
nodes = (
(809,586,o),
(835,614,o),
(835,650,cs),
(835,686,o),
(809,712,o),
(773,712,cs),
(736,712,o),
(709,686,o),
(709,650,cs),
(709,614,o),
(736,586,o),
(773,586,cs)
);
},
{
closed = 1;
nodes = (
(778,-200,o),
(830,-119,o),
(832,54,c),
(754,54,l),
(754,-68,o),
(719,-130,o),
(635,-131,c),
(635,-199,l)
);
},
{
closed = 1;
nodes = (
(69,430,l),
(754,430,l),
(754,54,l),
(832,54,l),
(832,500,l),
(69,500,l)
);
}
);
width = 1000;
}
);
subCategory = Ligature;
},
{
category = Letter;
glyphname = f_l.liga;
lastChange = "2021-06-13 13:06:54 +0000";
layers = (
{
layerId = m01;
shapes = (
{
closed = 1;
nodes = (
(804,252,l),
(805,683,l),
(726,683,l),
(726,252,l)
);
},
{
closed = 1;
nodes = (
(924,68,l),
(802,69,o),
(804,99,o),
(804,252,c),
(726,253,l),
(726,84,o),
(728,-4,o),
(924,0,c)
);
},
{
closed = 1;
nodes = (
(441,430,l),
(441,500,l),
(69,500,l),
(69,430,l)
);
},
{
closed = 1;
nodes = (
(131,-194,o),
(174,-187,o),
(214,-169,o),
(249,-139,o),
(273,-101,o),
(287,-60,o),
(291,-39,q),
(298,569,l),
(301,588,o),
(317,624,o),
(351,656,o),
(401,668,o),
(431,664,qs),
(804,614,l),
(804,684,l),
(433,732,ls),
(401,736,o),
(344,732,o),
(298,710,o),
(263,680,o),
(239,642,o),
(225,601,o),
(222,580,q),
(214,-28,l),
(211,-47,o),
(196,-83,o),
(167,-111,o),
(129,-124,o),
(110,-124,qs),
(40,-124,l),
(40,-194,l),
(110,-194,ls)
);
}
);
width = 1000;
}
);
subCategory = Ligature;
},
{
category = Letter;
glyphname = f_m.liga;
lastChange = "2021-06-13 13:06:54 +0000";
layers = (
{
layerId = m01;
shapes = (
{
closed = 1;
nodes = (
(441,430,l),
(441,500,l),
(69,500,l),
(69,430,l)
);
},
{
closed = 1;
nodes = (
(131,-194,o),
(174,-187,o),
(214,-169,o),
(249,-139,o),
(273,-101,o),
(287,-60,o),
(291,-39,q),
(298,569,l),
(301,588,o),
(317,624,o),
(345,652,o),
(383,665,o),
(402,665,qs),
(472,665,l),
(472,735,l),
(402,735,ls),
(381,735,o),
(338,728,o),
(298,710,o),
(263,680,o),
(239,642,o),
(225,601,o),
(222,580,q),
(214,-28,l),
(211,-47,o),
(196,-83,o),
(167,-111,o),
(129,-124,o),
(110,-124,qs),
(40,-124,l),
(40,-194,l),
(110,-194,ls)
);
},
{
closed = 1;
nodes = (
(654,383,o),
(670,433,o),
(692,433,cs),
(713,433,o),
(729,383,o),
(729,322,c),
(654,322,l)
);
},
{
closed = 1;
nodes = (
(960,322,l),
(882,322,l),
(882,0,l),
(960,0,l)
);
},
{
closed = 1;
nodes = (
(807,322,l),
(729,322,l),
(729,0,l),
(807,0,l)
);
},
{
closed = 1;
nodes = (
(807,322,l),
(807,421,o),
(751,500,o),
(692,500,cs),
(632,500,o),
(576,421,o),
(576,322,c)
);
},
{
closed = 1;
nodes = (
(807,383,o),
(823,433,o),
(845,433,cs),
(866,433,o),
(882,383,o),
(882,322,c),
(807,322,l)
);
},
{
closed = 1;
nodes = (
(960,322,l),
(960,421,o),
(904,500,o),
(845,500,cs),
(785,500,o),
(729,421,o),
(729,322,c)
);
},
{
closed = 1;
nodes = (
(654,322,l),
(576,322,l),
(577,-1,l),
(656,0,l)
);
},
{
closed = 1;
nodes = (
(654,414,o),
(644,500,o),
(441,500,c),
(441,430,l),
(561,427,o),
(576,374,o),
(576,322,c),
(654,322,l)
);
}
);
width = 1000;
}
);
subCategory = Ligature;
},
{
category = Letter;
glyphname = f_n.liga;
lastChange = "2021-06-13 13:06:43 +0000";
layers = (
{
layerId = m01;
shapes = (
{
closed = 1;
nodes = (
(441,430,l),
(441,500,l),
(69,500,l),
(69,430,l)
);
},
{
closed = 1;
nodes = (
(131,-194,o),
(174,-187,o),
(214,-169,o),
(249,-139,o),
(273,-101,o),
(287,-60,o),
(291,-39,q),
(298,569,l),
(301,588,o),
(317,624,o),
(345,652,o),
(383,665,o),
(402,665,qs),
(472,665,l),
(472,735,l),
(402,735,ls),
(381,735,o),
(338,728,o),
(298,710,o),
(263,680,o),
(239,642,o),
(225,601,o),
(222,580,q),
(214,-28,l),
(211,-47,o),
(196,-83,o),
(167,-111,o),
(129,-124,o),
(110,-124,qs),
(40,-124,l),
(40,-194,l),
(110,-194,ls)
);
},
{
closed = 1;
nodes = (
(651,323,l),
(573,323,l),
(573,1,l),
(651,1,l)
);
},
{
closed = 1;
nodes = (
(651,384,o),
(699,434,o),
(759,434,cs),
(818,434,o),
(866,384,o),
(866,323,c),
(651,323,l)
);
},
{
closed = 1;
nodes = (
(944,323,l),
(944,422,o),
(861,502,o),
(759,502,cs),
(656,502,o),
(573,422,o),
(573,323,c)
);
},
{
closed = 1;
nodes = (
(944,323,l),
(866,323,l),
(866,1,l),
(944,1,l)
);
},
{
closed = 1;
nodes = (
(651,415,o),
(644,500,o),
(441,500,c),
(441,430,l),
(561,427,o),
(573,375,o),
(573,323,c),
(651,323,l)
);
}
);
width = 1000;
}
);
subCategory = Ligature;
},
{
glyphname = zero;
lastChange = "2021-06-12 14:08:34 +0000";
layers = (
{
layerId = m01;
shapes = (
{
closed = 1;
nodes = (
(280,288,o),
(305,312,o),
(305,342,cs),
(305,373,o),
(280,397,o),
(250,397,cs),
(220,397,o),
(195,373,o),
(195,342,cs),
(195,312,o),
(220,288,o),
(250,288,cs)
);
},
{
closed = 1;
nodes = (
(55,493,l),
(55,608,o),
(118,700,o),
(251,700,cs),
(384,700,o),
(445,608,o),
(445,493,c),
(367,493,l),
(367,569,o),
(329,632,o),
(250,632,cs),
(171,632,o),
(133,569,o),
(133,493,c)
);
},
{
closed = 1;
nodes = (
(133,132,o),
(171,69,o),
(250,69,cs),
(329,69,o),
(367,132,o),
(367,208,c),
(445,208,l),
(445,93,o),
(384,1,o),
(251,1,cs),
(118,1,o),
(55,93,o),
(55,208,c),
(133,208,l)
);
},
{
closed = 1;
nodes = (
(133,493,l),
(133,208,l),
(55,208,l),
(55,493,l)
);
},
{
closed = 1;
nodes = (
(445,493,l),
(445,208,l),
(367,208,l),
(367,493,l)
);
}
);
width = 500;
}
);
unicode = 48;
},
{
glyphname = one;
lastChange = "2021-06-12 08:49:11 +0000";
layers = (
{
layerId = m01;
shapes = (
{
closed = 1;
nodes = (
(425,70,l),
(296,70,l),
(296,697,l),
(219,697,l),
(35,565,l),
(80,508,l),
(219,608,l),
(219,70,l),
(75,70,l),
(75,0,l),
(425,0,l)
);
}
);
width = 500;
}
);
unicode = 49;
},
{
glyphname = two;
lastChange = "2021-06-12 14:55:52 +0000";
layers = (
{
layerId = m01;
shapes = (
{
closed = 1;
nodes = (
(436,68,l),
(157,68,l),
(353,313,l),
(291,352,l),
(64,68,l),
(64,0,l),
(436,0,l)
);
},
{
closed = 1;
nodes = (
(140,580,o),
(178,632,o),
(250,632,cs),
(405,632,o),
(373,456,o),
(291,352,c),
(353,313,l),
(474,454,o),
(499,700,o),
(251,700,cs),
(131,700,o),
(68,625,o),
(57,527,c),
(134,514,l)
);
}
);
width = 500;
}
);
unicode = 50;
},
{
glyphname = three;
lastChange = "2021-06-12 13:18:58 +0000";
layers = (
{
layerId = m01;
shapes = (
{
closed = 1;
nodes = (
(252,421,l),
(429,629,l),
(429,699,l),
(66,699,l),
(66,629,l),
(334,629,l),
(157,421,l),
(157,355,l),
(252,355,l)
);
},
{
closed = 1;
nodes = (
(250,355,l),
(328,355,o),
(366,335,o),
(366,214,cs),
(366,97,o),
(330,58,o),
(252,58,cs),
(186,58,o),
(154,100,o),
(145,180,c),
(66,181,l),
(78,56,o),
(133,-8,o),
(249,-8,cs),
(382,-8,o),
(439,53,o),
(439,215,cs),
(439,361,o),
(382,421,o),
(250,421,c)
);
}
);
width = 500;
}
);
unicode = 51;
},
{
glyphname = four;
lastChange = "2021-06-12 08:58:54 +0000";
layers = (
{
layerId = m01;
shapes = (
{
closed = 1;
nodes = (
(432,251,l),
(141,251,l),
(401,700,l),
(314,700,l),
(54,251,l),
(54,185,l),
(432,185,l)
);
},
{
closed = 1;
nodes = (
(402,423,l),
(325,423,l),
(325,0,l),
(402,0,l)
);
}
);
width = 500;
}
);
unicode = 52;
},
{
glyphname = five;
lastChange = "2021-06-12 13:11:35 +0000";
layers = (
{
layerId = m01;
shapes = (
{
closed = 1;
nodes = (
(147,304,l),
(158,376,o),
(191,408,o),
(252,408,cs),
(330,408,o),
(365,355,o),
(365,234,cs),
(365,117,o),
(330,58,o),
(252,58,cs),
(186,58,o),
(154,100,o),
(145,180,c),
(66,181,l),
(78,56,o),
(133,-8,o),
(249,-8,cs),
(382,-8,o),
(438,73,o),
(438,235,cs),
(438,405,o),
(382,478,o),
(249,478,cs),
(138,478,o),
(82,425,o),
(68,305,c)
);
},
{
closed = 1;
nodes = (
(69,629,l),
(416,629,l),
(417,700,l),
(70,700,l)
);
},
{
closed = 1;
nodes = (
(68,305,l),
(147,305,l),
(147,700,l),
(68,700,l)
);
}
);
width = 500;
}
);
unicode = 53;
},
{
glyphname = six;
lastChange = "2021-06-12 13:14:20 +0000";
layers = (
{
layerId = m01;
shapes = (
{
closed = 1;
nodes = (
(174,50,o),
(142,104,o),
(142,205,cs),
(142,312,o),
(175,359,o),
(255,359,cs),
(337,359,o),
(369,312,o),
(369,205,cs),
(369,102,o),
(337,50,o),
(255,50,cs)
);
},
{
closed = 1;
nodes = (
(391,-8,o),
(445,63,o),
(445,206,cs),
(445,356,o),
(391,421,o),
(253,421,cs),
(117,421,o),
(61,356,o),
(61,206,cs),
(61,66,o),
(115,-8,o),
(253,-8,cs)
);
},
{
closed = 1;
nodes = (
(197,616,o),
(175,595,o),
(118,469,cs),
(76,376,o),
(62,275,o),
(62,207,c),
(143,206,l),
(143,275,o),
(168,379,o),
(197,448,cs),
(234,537,o),
(280,604,o),
(334,700,c),
(249,700,l)
);
}
);
width = 500;
}
);
unicode = 54;
},
{
glyphname = seven;
lastChange = "2021-06-12 08:51:33 +0000";
layers = (
{
layerId = m01;
shapes = (
{
closed = 1;
nodes = (
(436,629,l),
(436,699,l),
(64,699,l),
(64,554,l),
(141,554,l),
(141,629,l),
(355,629,l),
(146,1,l),
(226,1,l)
);
}
);
width = 500;
}
);
unicode = 55;
},
{
glyphname = eight;
lastChange = "2021-06-12 13:17:12 +0000";
layers = (
{
layerId = m01;
shapes = (
{
closed = 1;
nodes = (
(333,339,o),
(369,268,o),
(369,198,cs),
(369,99,o),
(332,56,o),
(248,56,cs),
(160,56,o),
(125,99,o),
(125,198,cs),
(125,272,o),
(160,339,o),
(248,339,cs)
);
},
{
closed = 1;
nodes = (
(101,393,o),
(45,308,o),
(45,197,cs),
(45,59,o),
(102,-1,o),
(250,-1,cs),
(394,-1,o),
(455,59,o),
(455,197,cs),
(455,304,o),
(396,393,o),
(250,393,cs)
);
},
{
closed = 1;
nodes = (
(173,398,o),
(144,457,o),
(144,523,cs),
(144,610,o),
(173,648,o),
(248,648,cs),
(321,648,o),
(351,610,o),
(351,523,cs),
(351,461,o),
(322,398,o),
(248,398,cs)
);
},
{
closed = 1;
nodes = (
(376,351,o),
(425,429,o),
(425,524,cs),
(425,645,o),
(374,698,o),
(250,698,cs),
(124,698,o),
(75,645,o),
(75,524,cs),
(75,426,o),
(123,351,o),
(250,351,cs)
);
}
);
width = 500;
}
);
unicode = 56;
},
{
glyphname = nine;
lastChange = "2021-06-12 13:14:51 +0000";
layers = (
{
layerId = m01;
shapes = (
{
closed = 1;
nodes = (
(332,642,o),
(364,588,o),
(364,487,cs),
(364,380,o),
(331,333,o),
(251,333,cs),
(169,333,o),
(137,380,o),
(137,487,cs),
(137,590,o),
(169,642,o),
(251,642,cs)
);
},
{
closed = 1;
nodes = (
(114,700,o),
(61,629,o),
(61,486,cs),
(61,336,o),
(115,271,o),
(253,271,cs),
(389,271,o),
(445,336,o),
(445,486,cs),
(445,626,o),
(391,700,o),
(253,700,cs)
);
},
{
closed = 1;
nodes = (
(309,76,o),
(331,97,o),
(388,223,cs),
(430,316,o),
(444,417,o),
(444,485,c),
(363,486,l),
(363,417,o),
(338,313,o),
(309,244,cs),
(272,155,o),
(226,88,o),
(172,-8,c),
(257,-8,l)
);
}
);
width = 500;
}
);
unicode = 57;
},
{
glyphname = .notdef;
lastChange = "2021-06-12 07:17:57 +0000";
layers = (
{
layerId = m01;
shapes = (
{
closed = 1;
nodes = (
(427,700,l),
(73,700,l),
(73,0,l),
(427,0,l)
);
},
{
closed = 1;
nodes = (
(295,671,l),
(384,671,l),
(102,317,l),
(102,429,l)
);
},
{
closed = 1;
nodes = (
(177,671,l),
(265,671,l),
(102,466,l),
(102,578,l)
);
},
{
closed = 1;
nodes = (
(146,671,l),
(102,615,l),
(102,671,l)
);
},
{
closed = 1;
nodes = (
(398,650,l),
(398,539,l),
(102,169,l),
(102,280,l)
);
},
{
closed = 1;
nodes = (
(398,502,l),
(398,390,l),
(109,29,l),
(102,29,l),
(102,131,l)
);
},
{
closed = 1;
nodes = (
(398,242,l),
(228,29,l),
(139,29,l),
(398,353,l)
);
},
{
closed = 1;
nodes = (
(398,92,l),
(347,29,l),
(257,29,l),
(398,205,l)
);
},
{
closed = 1;
nodes = (
(398,55,l),
(398,29,l),
(376,29,l)
);
}
);
width = 500;
}
);
},
{
glyphname = hyphen_greater.liga;
lastChange = "2021-06-13 04:10:55 +0000";
layers = (
{
layerId = m01;
shapes = (
{
closed = 1;
nodes = (
(50,375,l),
(50,305,l),
(839,305,l),
(839,375,l)
);
},
{
closed = 1;
nodes = (
(550,249,l),
(550,169,l),
(950,300,l),
(950,380,l)
);
},
{
closed = 1;
nodes = (
(950,380,l),
(550,511,l),
(550,431,l),
(950,300,l)
);
}
);
width = 1000;
}
);
},
{
glyphname = period;
lastChange = "2021-06-13 03:29:35 +0000";
layers = (
{
layerId = m01;
shapes = (
{
closed = 1;
nodes = (
(289,3,o),
(321,35,o),
(321,74,cs),
(321,113,o),
(289,145,o),
(250,145,cs),
(210,145,o),
(179,113,o),
(179,74,cs),
(179,35,o),
(210,3,o),
(250,3,cs)
);
}
);
width = 500;
}
);
unicode = 46;
},
{
glyphname = comma;
lastChange = "2021-06-12 14:53:44 +0000";
layers = (
{
layerId = m01;
shapes = (
{
closed = 1;
nodes = (
(354,1,o),
(386,33,o),
(386,72,cs),
(386,111,o),
(354,143,o),
(315,143,cs),
(275,143,o),
(244,111,o),
(244,72,cs),
(244,33,o),
(275,1,o),
(315,1,cs)
);
},
{
closed = 1;
nodes = (
(266,85,l),
(284,-1,o),
(262,-23,o),
(119,-32,c),
(119,-102,l),
(252,-102,o),
(271,-92,o),
(318,-54,cs),
(362,-18,o),
(386,16,o),
(386,72,c)
);
}
);
width = 500;
}
);
unicode = 44;
},
{
glyphname = colon;
lastChange = "2021-06-13 13:08:55 +0000";
layers = (
{
layerId = m01;
shapes = (
{
closed = 1;
nodes = (
(288,129,o),
(320,161,o),
(320,199,cs),
(320,237,o),
(288,269,o),
(250,269,cs),
(211,269,o),
(180,237,o),
(180,199,cs),
(180,161,o),
(211,129,o),
(250,129,cs)
);
},
{
closed = 1;
nodes = (
(288,411,o),
(320,443,o),
(320,481,cs),
(320,519,o),
(288,551,o),
(250,551,cs),
(211,551,o),
(180,519,o),
(180,481,cs),
(180,443,o),
(211,411,o),
(250,411,cs)
);
}
);
width = 500;
}
);
unicode = 58;
},
{
glyphname = semicolon;
lastChange = "2021-06-12 14:53:55 +0000";
layers = (
{
layerId = m01;
shapes = (
{
closed = 1;
nodes = (
(340,272,o),
(372,304,o),
(372,343,cs),
(372,382,o),
(340,414,o),
(301,414,cs),
(261,414,o),
(230,382,o),
(230,343,cs),
(230,304,o),
(261,272,o),
(301,272,cs)
);
},
{
closed = 1;
nodes = (
(340,1,o),
(372,33,o),
(372,72,cs),
(372,111,o),
(340,143,o),
(301,143,cs),
(261,143,o),
(230,111,o),
(230,72,cs),
(230,33,o),
(261,1,o),
(301,1,cs)
);
},
{
closed = 1;
nodes = (
(252,85,l),
(270,-1,o),
(248,-23,o),
(105,-32,c),
(105,-102,l),
(238,-102,o),
(257,-92,o),
(304,-54,cs),
(348,-18,o),
(372,16,o),
(372,72,c)
);
}
);
width = 500;
}
);
unicode = 59;
},
{
glyphname = exclam;
lastChange = "2021-06-12 11:44:37 +0000";
layers = (
{
layerId = m01;
shapes = (
{
closed = 1;
nodes = (
(282,3,o),
(309,30,o),
(309,62,cs),
(309,94,o),
(282,121,o),
(250,121,cs),
(217,121,o),
(191,94,o),
(191,62,cs),
(191,30,o),
(217,3,o),
(250,3,cs)
);
},
{
closed = 1;
nodes = (
(216,229,l),
(284,228,l),
(298,700,l),
(202,701,l)
);
}
);
width = 500;
}
);
unicode = 33;
},
{
glyphname = exclamdown;
lastChange = "2021-06-13 03:28:41 +0000";
layers = (
{
layerId = m01;
shapes = (
{
closed = 1;
nodes = (
(217,626,o),
(191,599,o),
(191,567,cs),
(191,535,o),
(217,508,o),
(250,508,cs),
(282,508,o),
(309,535,o),
(309,567,cs),
(309,599,o),
(282,626,o),
(250,626,cs)
);
},
{
closed = 1;
nodes = (
(298,-71,l),
(284,401,l),
(216,400,l),
(202,-72,l)
);
}
);
width = 500;
}
);
unicode = 161;
},
{
glyphname = question;
lastChange = "2021-06-13 03:26:50 +0000";
layers = (
{
layerId = m01;
shapes = (
{
closed = 1;
nodes = (
(272,3,o),
(299,30,o),
(299,62,cs),
(299,94,o),
(272,121,o),
(240,121,cs),
(207,121,o),
(181,94,o),
(181,62,cs),
(181,30,o),
(207,3,o),
(240,3,cs)
);
},
{
closed = 1;
nodes = (
(133,580,l),
(268,689,o),
(352,599,o),
(352,540,cs),
(352,448,o),
(245,407,o),
(212,250,c),
(282,233,l),
(321,392,o),
(422,411,o),
(422,528,cs),
(422,698,o),
(232,757,o),
(98,631,c)
);
}
);
width = 500;
}
);
unicode = 63;
},
{
glyphname = questiondown;
lastChange = "2021-06-13 03:27:24 +0000";
layers = (
{
layerId = m01;
shapes = (
{
closed = 1;
nodes = (
(207,581,o),
(181,554,o),
(181,522,cs),
(181,490,o),
(207,463,o),
(240,463,cs),
(272,463,o),
(299,490,o),
(299,522,cs),
(299,554,o),
(272,581,o),
(240,581,cs)
);
},
{
closed = 1;
nodes = (
(232,-173,o),
(422,-114,o),
(422,56,cs),
(422,173,o),
(321,192,o),
(282,351,c),
(212,334,l),
(245,177,o),
(352,136,o),
(352,44,cs),
(352,-15,o),
(268,-105,o),
(133,4,c),
(98,-47,l)
);
}
);
width = 500;
}
);
unicode = 191;
},
{
glyphname = periodcentered;
lastChange = "2021-06-13 03:29:10 +0000";
layers = (
{
layerId = m01;
shapes = (
{
closed = 1;
nodes = (
(277,290,o),
(300,313,o),
(300,340,cs),
(300,367,o),
(277,390,o),
(250,390,cs),
(222,390,o),
(200,367,o),
(200,340,cs),
(200,313,o),
(222,290,o),
(250,290,cs)
);
}
);
width = 500;
}
);
unicode = 183;
},
{
glyphname = bullet;
lastChange = "2021-06-13 03:27:55 +0000";
layers = (
{
layerId = m01;
shapes = (
{
closed = 1;
nodes = (
(289,269,o),
(321,301,o),
(321,340,cs),
(321,379,o),
(289,411,o),
(250,411,cs),
(210,411,o),
(179,379,o),
(179,340,cs),
(179,301,o),
(210,269,o),
(250,269,cs)
);
}
);
width = 500;
}
);
unicode = 8226;
},
{
glyphname = asterisk;
lastChange = "2021-06-13 03:28:04 +0000";
layers = (
{
layerId = m01;
shapes = (
{
closed = 1;
nodes = (
(77,310,l),
(423,311,l),
(423,371,l),
(77,370,l)
);
},
{
closed = 1;
nodes = (
(137,475,l),
(311,176,l),
(363,206,l),
(189,505,l)
);
},
{
closed = 1;
nodes = (
(310,506,l),
(138,205,l),
(190,175,l),
(362,476,l)
);
}
);
width = 500;
}
);
unicode = 42;
},
{
glyphname = numbersign;
lastChange = "2021-06-12 12:18:45 +0000";
layers = (
{
layerId = m01;
shapes = (
{
closed = 1;
nodes = (
(123,5,l),
(202,5,l),
(197,621,l),
(118,621,l)
);
},
{
closed = 1;
nodes = (
(304,4,l),
(383,4,l),
(378,620,l),
(299,620,l)
);
},
{
closed = 1;
nodes = (
(48,393,l),
(456,393,l),
(456,485,l),
(48,485,l)
);
},
{
closed = 1;
nodes = (
(44,136,l),
(452,136,l),
(452,228,l),
(44,228,l)
);
}
);
width = 500;
}
);
unicode = 35;
},
{
glyphname = slash;
lastChange = "2021-06-12 12:20:25 +0000";
layers = (
{
layerId = m01;
shapes = (
{
closed = 1;
nodes = (
(89,0,l),
(166,0,l),
(422,700,l),
(345,700,l)
);
}
);
width = 500;
}
);
unicode = 47;
},
{
glyphname = backslash;
lastChange = "2021-06-13 06:28:40 +0000";
layers = (
{
layerId = m01;
shapes = (
{
closed = 1;
nodes = (
(84,701,l),
(338,1,l),
(415,1,l),
(161,701,l)
);
}
);
width = 500;
}
);
unicode = 92;
},
{
glyphname = colon.case;
lastChange = "2021-06-13 10:29:36 +0000";
layers = (
{
layerId = m01;
shapes = (
{
closed = 1;
nodes = (
(323,-183,o),
(355,-151,o),
(355,-113,cs),
(355,-75,o),
(323,-43,o),
(285,-43,cs),
(246,-43,o),
(215,-75,o),
(215,-113,cs),
(215,-151,o),
(246,-183,o),
(285,-183,cs)
);
},
{
closed = 1;
nodes = (
(323,99,o),
(355,131,o),
(355,169,cs),
(355,207,o),
(323,239,o),
(285,239,cs),
(246,239,o),
(215,207,o),
(215,169,cs),
(215,131,o),
(246,99,o),
(285,99,cs)
);
}
);
width = 600;
}
);
},
{
glyphname = hyphen;
lastChange = "2021-06-12 13:43:02 +0000";
layers = (
{
layerId = m01;
shapes = (
{
closed = 1;
nodes = (
(50,305,l),
(450,305,l),
(450,375,l),
(50,375,l)
);
}
);
width = 500;
}
);
unicode = 45;
},
{
glyphname = underscore;
lastChange = "2021-06-12 14:54:54 +0000";
layers = (
{
layerId = m01;
shapes = (
{
closed = 1;
nodes = (
(80,-39,l),
(420,-39,l),
(420,33,l),
(80,33,l)
);
}
);
width = 500;
}
);
unicode = 95;
},
{
glyphname = parenleft;
lastChange = "2021-06-12 13:52:41 +0000";
layers = (
{
layerId = m01;
shapes = (
{
closed = 1;
nodes = (
(374,-13,l),
(222,29,o),
(160,167,o),
(160,334,c),
(89,334,l),
(89,114,o),
(184,-31,o),
(374,-87,c)
);
},
{
closed = 1;
nodes = (
(184,699,o),
(89,554,o),
(89,334,c),
(160,334,l),
(160,501,o),
(222,639,o),
(374,681,c),
(374,755,l)
);
}
);
width = 500;
}
);
unicode = 40;
},
{
glyphname = parenright;
lastChange = "2021-06-12 13:53:13 +0000";
layers = (
{
layerId = m01;
shapes = (
{
closed = 1;
nodes = (
(316,-31,o),
(411,114,o),
(411,334,c),
(340,334,l),
(340,167,o),
(278,29,o),
(126,-13,c),
(126,-87,l)
);
},
{
closed = 1;
nodes = (
(126,681,l),
(278,639,o),
(340,501,o),
(340,334,c),
(411,334,l),
(411,554,o),
(316,699,o),
(126,755,c)
);
}
);
width = 500;
}
);
unicode = 41;
},
{
glyphname = braceleft;
lastChange = "2021-06-12 13:49:46 +0000";
layers = (
{
layerId = m01;
shapes = (
{
closed = 1;
nodes = (
(284,740,o),
(176,688,o),
(170,552,cs),
(165,447,o),
(155,407,o),
(89,388,c),
(89,292,l),
(173,315,o),
(239,342,o),
(243,505,cs),
(246,607,o),
(313,661,o),
(375,668,c),
(375,757,l)
);
},
{
closed = 1;
nodes = (
(375,12,l),
(313,19,o),
(246,73,o),
(243,175,cs),
(239,338,o),
(173,365,o),
(89,388,c),
(89,292,l),
(155,273,o),
(165,233,o),
(170,128,cs),
(176,-8,o),
(284,-60,o),
(375,-77,c)
);
}
);
width = 500;
}
);
unicode = 123;
},
{
glyphname = braceright;
lastChange = "2021-06-12 13:49:40 +0000";
layers = (
{
layerId = m01;
shapes = (
{
closed = 1;
nodes = (
(125,668,l),
(187,661,o),
(254,607,o),
(257,505,cs),
(261,342,o),
(327,315,o),
(411,292,c),
(411,388,l),
(345,407,o),
(335,447,o),
(330,552,cs),
(324,688,o),
(216,740,o),
(125,757,c)
);
},
{
closed = 1;
nodes = (
(216,-60,o),
(324,-8,o),
(330,128,cs),
(335,233,o),
(345,273,o),
(411,292,c),
(411,388,l),
(327,365,o),
(261,338,o),
(257,175,cs),
(254,73,o),
(187,19,o),
(125,12,c),
(125,-77,l)
);
}
);
width = 500;
}
);
unicode = 125;
},
{
glyphname = bracketleft;
lastChange = "2021-06-12 13:54:33 +0000";
layers = (
{
layerId = m01;
shapes = (
{
closed = 1;
nodes = (
(411,23,l),
(204,23,l),
(204,657,l),
(411,657,l),
(411,727,l),
(126,727,l),
(126,-47,l),
(411,-47,l)
);
}
);
width = 500;
}
);
unicode = 91;
},
{
glyphname = bracketright;
lastChange = "2021-06-12 13:54:51 +0000";
layers = (
{
layerId = m01;
shapes = (
{
closed = 1;
nodes = (
(374,-47,l),
(374,727,l),
(89,727,l),
(89,657,l),
(296,657,l),
(296,23,l),
(89,23,l),
(89,-47,l)
);
}
);
width = 500;
}
);
unicode = 93;
},
{
glyphname = quotedbl;
lastChange = "2021-06-13 03:31:11 +0000";
layers = (
{
layerId = m01;
shapes = (
{
closed = 1;
nodes = (
(127,463,l),
(183,463,l),
(195,700,l),
(115,700,l)
);
},
{
closed = 1;
nodes = (
(317,463,l),
(373,463,l),
(385,700,l),
(305,700,l)
);
}
);
width = 500;
}
);
unicode = 34;
},
{
glyphname = quotesingle;
lastChange = "2021-06-13 03:31:19 +0000";
layers = (
{
layerId = m01;
shapes = (
{
closed = 1;
nodes = (
(222,463,l),
(278,463,l),
(290,700,l),
(210,700,l)
);
}
);
width = 500;
}
);
unicode = 39;
},
{
glyphname = at;
lastChange = "2021-06-12 12:05:38 +0000";
layers = (
{
layerId = m01;
shapes = (
{
closed = 1;
nodes = (
(453,281,l),
(453,459,o),
(400,499,o),
(258,499,cs),
(119,499,o),
(61,423,o),
(61,245,cs),
(61,79,o),
(117,-8,o),
(258,-8,c),
(410,-7,l),
(408,62,l),
(261,59,l),
(177,59,o),
(140,124,o),
(140,244,cs),
(140,371,o),
(178,426,o),
(261,426,cs),
(345,426,o),
(377,410,o),
(377,283,c)
);
},
{
closed = 1;
nodes = (
(377,289,l),
(377,220,o),
(371,186,o),
(330,185,c),
(295,184,o),
(231,206,o),
(320,326,c),
(275,362,l),
(202,270,o),
(159,122,o),
(330,122,cs),
(402,122,o),
(453,157,o),
(453,288,c)
);
}
);
width = 500;
}
);
unicode = 64;
},
{
glyphname = ampersand;
lastChange = "2021-06-13 03:22:03 +0000";
layers = (
{
layerId = m01;
shapes = (
{
closed = 1;
nodes = (
(444,0,l),
(319,256,o),
(174,438,o),
(163,504,cs),
(153,565,o),
(186,603,o),
(243,601,cs),
(293,599,o),
(328,563,o),
(342,482,c),
(407,499,l),
(391,602,o),
(336,668,o),
(241,673,cs),
(141,678,o),
(71,591,o),
(85,505,cs),
(102,403,o),
(268,200,o),
(360,0,c)
);
},
{
closed = 1;
nodes = (
(163,377,l),
(104,308,o),
(64,220,o),
(60,170,cs),
(53,67,o),
(97,-4,o),
(243,-5,cs),
(379,-6,o),
(422,178,o),
(436,265,c),
(365,265,l),
(360,212,o),
(305,69,o),
(245,69,cs),
(176,69,o),
(124,98,o),
(134,177,cs),
(137,201,o),
(163,262,o),
(199,308,c)
);
}
);
width = 500;
}
);
unicode = 38;
},
{
glyphname = copyright;
lastChange = "2021-06-13 03:56:10 +0000";
layers = (
{
layerId = m01;
shapes = (
{
closed = 1;
nodes = (
(365,125,o),
(465,224,o),
(465,340,cs),
(465,455,o),
(365,555,o),
(250,555,cs),
(134,555,o),
(35,455,o),
(35,340,cs),
(35,224,o),
(134,125,o),
(250,125,cs)
);
},
{
closed = 1;
nodes = (
(159,180,o),
(90,249,o),
(90,340,cs),
(90,430,o),
(159,500,o),
(250,500,cs),
(340,500,o),
(410,430,o),
(410,340,cs),
(410,249,o),
(340,180,o),
(250,180,cs)
);
},
{
closed = 1;
nodes = (
(346,269,l),
(324,240,o),
(289,220,o),
(250,220,cs),
(184,220,o),
(130,274,o),
(130,340,cs),
(130,405,o),
(184,460,o),
(250,460,cs),
(287,460,o),
(322,441,o),
(345,413,c),
(311,388,l),
(296,406,o),
(274,415,o),
(250,415,cs),
(206,415,o),
(175,383,o),
(175,340,cs),
(175,296,o),
(206,263,o),
(250,263,cs),
(275,263,o),
(297,278,o),
(312,297,c)
);
}
);
width = 500;
}
);
unicode = 169;
},
{
glyphname = bar;
lastChange = "2021-06-12 13:42:34 +0000";
layers = (
{
layerId = m01;
shapes = (
{
closed = 1;
nodes = (
(215,-63,l),
(285,-63,l),
(285,743,l),
(215,743,l)
);
}
);
width = 500;
}
);
unicode = 124;
},
{
glyphname = less_hyphen.liga;
lastChange = "2021-06-13 04:10:20 +0000";
layers = (
{
layerId = m01;
shapes = (
{
closed = 1;
nodes = (
(161,305,l),
(950,305,l),
(950,375,l),
(161,375,l)
);
},
{
closed = 1;
nodes = (
(50,300,l),
(450,169,l),
(450,249,l),
(50,380,l)
);
},
{
closed = 1;
nodes = (
(450,431,l),
(450,511,l),
(50,380,l),
(50,300,l)
);
}
);
width = 1000;
}
);
},
{
glyphname = dollar;
lastChange = "2021-06-12 13:43:23 +0000";
layers = (
{
layerId = m01;
shapes = (
{
closed = 1;
nodes = (
(428,439,l),
(406,537,o),
(345,582,o),
(249,583,cs),
(91,585,o),
(-17,406,o),
(155,328,c),
(345,329,l),
(277,353,o),
(237,364,o),
(184,387,cs),
(109,420,o),
(140,510,o),
(235,510,cs),
(310,510,o),
(342,482,o),
(356,420,c)
);
},
{
closed = 1;
nodes = (
(72,218,l),
(94,120,o),
(155,75,o),
(251,74,cs),
(409,72,o),
(517,251,o),
(345,329,c),
(155,328,l),
(223,304,o),
(263,293,o),
(316,270,cs),
(391,237,o),
(361,147,o),
(265,147,cs),
(190,147,o),
(159,175,o),
(144,237,c)
);
},
{
closed = 1;
nodes = (
(217,-19,l),
(287,-19,l),
(285,699,l),
(215,699,l)
);
}
);
width = 500;
}
);
unicode = 36;
},
{
glyphname = plus;
lastChange = "2021-06-12 13:43:40 +0000";
layers = (
{
layerId = m01;
shapes = (
{
closed = 1;
nodes = (
(50,304,l),
(450,305,l),
(450,375,l),
(50,374,l)
);
},
{
closed = 1;
nodes = (
(215,547,l),
(216,133,l),
(286,133,l),
(285,547,l)
);
}
);
width = 500;
}
);
unicode = 43;
},
{
glyphname = minus;
lastChange = "2021-06-12 15:28:25 +0000";
layers = (
{
layerId = m01;
shapes = (
{
closed = 1;
nodes = (
(50,305,l),
(450,305,l),
(450,375,l),
(50,375,l)
);
}
);
width = 500;
}
);
unicode = 8722;
},
{
glyphname = multiply;
lastChange = "2021-06-12 15:30:48 +0000";
layers = (
{
layerId = m01;
shapes = (
{
closed = 1;
nodes = (
(76,464,l),
(375,168,l),
(423,216,l),
(124,512,l)
);
},
{
closed = 1;
nodes = (
(380,518,l),
(72,210,l),
(120,162,l),
(429,470,l)
);
}
);
width = 500;
}
);
unicode = 215;
},
{
glyphname = divide;
lastChange = "2021-06-12 15:32:08 +0000";
layers = (
{
layerId = m01;
shapes = (
{
closed = 1;
nodes = (
(50,304,l),
(450,305,l),
(450,375,l),
(50,374,l)
);
},
{
closed = 1;
nodes = (
(287,432,o),
(313,460,o),
(313,496,cs),
(313,532,o),
(287,558,o),
(251,558,cs),
(214,558,o),
(187,532,o),
(187,496,cs),
(187,460,o),
(214,432,o),
(251,432,cs)
);
},
{
closed = 1;
nodes = (
(287,119,o),
(313,147,o),
(313,183,cs),
(313,219,o),
(287,245,o),
(251,245,cs),
(214,245,o),
(187,219,o),
(187,183,cs),
(187,147,o),
(214,119,o),
(251,119,cs)
);
}
);
width = 500;
}
);
unicode = 247;
},
{
glyphname = equal;
lastChange = "2021-06-12 13:45:06 +0000";
layers = (
{
layerId = m01;
shapes = (
{
closed = 1;
nodes = (
(449,460,l),
(51,460,l),
(51,388,l),
(449,388,l)
);
},
{
closed = 1;
nodes = (
(450,292,l),
(50,292,l),
(50,220,l),
(450,220,l)
);
}
);
width = 500;
}
);
unicode = 61;
},
{
glyphname = notequal;
lastChange = "2021-06-12 15:34:01 +0000";
layers = (
{
layerId = m01;
shapes = (
{
closed = 1;
nodes = (
(449,460,l),
(51,460,l),
(51,388,l),
(449,388,l)
);
},
{
closed = 1;
nodes = (
(450,292,l),
(50,292,l),
(50,220,l),
(450,220,l)
);
},
{
closed = 1;
nodes = (
(94,136,l),
(175,137,l),
(406,544,l),
(325,544,l)
);
}
);
width = 500;
}
);
unicode = 8800;
},
{
glyphname = greater;
lastChange = "2021-06-12 13:55:40 +0000";
layers = (
{
layerId = m01;
shapes = (
{
closed = 1;
nodes = (
(50,249,l),
(50,169,l),
(450,300,l),
(450,380,l)
);
},
{
closed = 1;
nodes = (
(450,380,l),
(50,511,l),
(50,431,l),
(450,300,l)
);
}
);
width = 500;
}
);
unicode = 62;
},
{
glyphname = less;
lastChange = "2021-06-12 13:42:55 +0000";
layers = (
{
layerId = m01;
shapes = (
{
closed = 1;
nodes = (
(50,300,l),
(450,169,l),
(450,249,l),
(50,380,l)
);
},
{
closed = 1;
nodes = (
(450,431,l),
(450,511,l),
(50,380,l),
(50,300,l)
);
}
);
width = 500;
}
);
unicode = 60;
},
{
glyphname = greaterequal;
lastChange = "2021-06-12 15:27:23 +0000";
layers = (
{
layerId = m01;
shapes = (
{
closed = 1;
nodes = (
(50,249,l),
(50,169,l),
(450,300,l),
(450,380,l)
);
},
{
closed = 1;
nodes = (
(450,380,l),
(50,511,l),
(50,431,l),
(450,300,l)
);
},
{
closed = 1;
nodes = (
(50,121,l),
(50,41,l),
(450,172,l),
(450,252,l)
);
}
);
width = 500;
}
);
unicode = 8805;
},
{
glyphname = lessequal;
lastChange = "2021-06-12 15:27:28 +0000";
layers = (
{
layerId = m01;
shapes = (
{
closed = 1;
nodes = (
(50,300,l),
(450,169,l),
(450,249,l),
(50,380,l)
);
},
{
closed = 1;
nodes = (
(450,431,l),
(450,511,l),
(50,380,l),
(50,300,l)
);
},
{
closed = 1;
nodes = (
(50,172,l),
(450,41,l),
(450,121,l),
(50,252,l)
);
}
);
width = 500;
}
);
unicode = 8804;
},
{
glyphname = plusminus;
lastChange = "2021-06-12 15:32:45 +0000";
layers = (
{
layerId = m01;
shapes = (
{
closed = 1;
nodes = (
(50,304,l),
(450,305,l),
(450,375,l),
(50,374,l)
);
},
{
closed = 1;
nodes = (
(215,547,l),
(216,133,l),
(286,133,l),
(285,547,l)
);
},
{
closed = 1;
nodes = (
(46,100,l),
(446,100,l),
(446,170,l),
(46,170,l)
);
}
);
width = 500;
}
);
unicode = 177;
},
{
glyphname = approxequal;
lastChange = "2021-06-12 15:25:36 +0000";
layers = (
{
layerId = m01;
shapes = (
{
closed = 1;
nodes = (
(250,387,l),
(314,347,o),
(377,349,o),
(441,387,c),
(441,449,l),
(377,409,o),
(314,407,o),
(250,449,c)
);
},
{
closed = 1;
nodes = (
(250,449,l),
(186,489,o),
(123,487,o),
(59,449,c),
(59,387,l),
(123,427,o),
(186,429,o),
(250,387,c)
);
},
{
closed = 1;
nodes = (
(250,231,l),
(314,191,o),
(377,193,o),
(441,231,c),
(441,303,l),
(377,263,o),
(314,261,o),
(250,303,c)
);
},
{
closed = 1;
nodes = (
(250,303,l),
(186,343,o),
(123,341,o),
(59,303,c),
(59,231,l),
(123,271,o),
(186,273,o),
(250,231,c)
);
}
);
width = 500;
}
);
unicode = 8776;
},
{
glyphname = asciitilde;
lastChange = "2021-06-12 14:01:29 +0000";
layers = (
{
layerId = m01;
shapes = (
{
closed = 1;
nodes = (
(250,304,l),
(314,264,o),
(377,266,o),
(441,304,c),
(441,376,l),
(377,336,o),
(314,334,o),
(250,376,c)
);
},
{
closed = 1;
nodes = (
(250,376,l),
(186,416,o),
(123,414,o),
(59,376,c),
(59,304,l),
(123,344,o),
(186,346,o),
(250,304,c)
);
}
);
width = 500;
}
);
unicode = 126;
},
{
glyphname = asciicircum;
lastChange = "2021-06-12 13:42:45 +0000";
layers = (
{
layerId = m01;
shapes = (
{
closed = 1;
nodes = (
(285,664,l),
(215,664,l),
(319,474,l),
(389,474,l)
);
},
{
closed = 1;
nodes = (
(285,664,l),
(215,664,l),
(111,474,l),
(181,474,l)
);
}
);
width = 500;
}
);
unicode = 94;
},
{
glyphname = percent;
lastChange = "2021-06-12 15:23:28 +0000";
layers = (
{
layerId = m01;
shapes = (
{
closed = 1;
nodes = (
(89,0,l),
(166,0,l),
(422,700,l),
(345,700,l)
);
},
{
closed = 1;
nodes = (
(345,0,l),
(422,0,l),
(422,170,l),
(345,170,l)
);
},
{
closed = 1;
nodes = (
(89,530,l),
(166,530,l),
(166,700,l),
(89,700,l)
);
}
);
width = 500;
}
);
unicode = 37;
},
{
glyphname = perthousand;
lastChange = "2021-06-12 15:24:23 +0000";
layers = (
{
layerId = m01;
shapes = (
{
closed = 1;
nodes = (
(74,0,l),
(151,0,l),
(371,700,l),
(294,700,l)
);
},
{
closed = 1;
nodes = (
(372,0,l),
(449,0,l),
(449,170,l),
(372,170,l)
);
},
{
closed = 1;
nodes = (
(74,530,l),
(151,530,l),
(151,700,l),
(74,700,l)
);
},
{
closed = 1;
nodes = (
(246,0,l),
(323,0,l),
(323,170,l),
(246,170,l)
);
}
);
width = 500;
}
);
unicode = 8240;
},
{
glyphname = upArrow;
lastChange = "2021-06-12 15:41:47 +0000";
layers = (
{
layerId = m01;
shapes = (
{
closed = 1;
nodes = (
(285,130,l),
(285,550,l),
(215,550,l),
(215,130,l)
);
},
{
closed = 1;
nodes = (
(155,290,l),
(278,510,l),
(215,550,l),
(87,329,l)
);
},
{
closed = 1;
nodes = (
(285,550,l),
(223,510,l),
(345,290,l),
(413,329,l)
);
}
);
width = 500;
}
);
unicode = 8593;
},
{
glyphname = northEastArrow;
lastChange = "2021-06-12 15:41:34 +0000";
layers = (
{
layerId = m01;
shapes = (
{
closed = 1;
nodes = (
(126,167,l),
(423,464,l),
(374,513,l),
(77,216,l)
);
},
{
closed = 1;
nodes = (
(147,372,l),
(390,440,l),
(374,513,l),
(127,447,l)
);
},
{
closed = 1;
nodes = (
(423,464,l),
(351,479,l),
(282,237,l),
(357,217,l)
);
}
);
width = 500;
}
);
unicode = 8599;
},
{
glyphname = rightArrow;
lastChange = "2021-06-12 15:41:00 +0000";
layers = (
{
layerId = m01;
shapes = (
{
closed = 1;
nodes = (
(40,305,l),
(460,305,l),
(460,375,l),
(40,375,l)
);
},
{
closed = 1;
nodes = (
(200,435,l),
(420,312,l),
(460,375,l),
(239,503,l)
);
},
{
closed = 1;
nodes = (
(460,305,l),
(420,367,l),
(200,245,l),
(239,177,l)
);
}
);
width = 500;
}
);
unicode = 8594;
},
{
glyphname = southEastArrow;
lastChange = "2021-06-12 15:41:21 +0000";
layers = (
{
layerId = m01;
shapes = (
{
closed = 1;
nodes = (
(77,464,l),
(374,167,l),
(423,216,l),
(126,513,l)
);
},
{
closed = 1;
nodes = (
(282,443,l),
(350,200,l),
(423,216,l),
(357,463,l)
);
},
{
closed = 1;
nodes = (
(374,167,l),
(389,239,l),
(147,308,l),
(127,233,l)
);
}
);
width = 500;
}
);
unicode = 8600;
},
{
glyphname = downArrow;
lastChange = "2021-06-12 15:41:57 +0000";
layers = (
{
layerId = m01;
shapes = (
{
closed = 1;
nodes = (
(215,550,l),
(215,130,l),
(285,130,l),
(285,550,l)
);
},
{
closed = 1;
nodes = (
(345,390,l),
(222,170,l),
(285,130,l),
(413,351,l)
);
},
{
closed = 1;
nodes = (
(215,130,l),
(277,170,l),
(155,390,l),
(87,351,l)
);
}
);
width = 500;
}
);
unicode = 8595;
},
{
glyphname = southWestArrow;
lastChange = "2021-06-12 15:44:34 +0000";
layers = (
{
layerId = m01;
shapes = (
{
closed = 1;
nodes = (
(374,513,l),
(77,216,l),
(126,167,l),
(423,464,l)
);
},
{
closed = 1;
nodes = (
(353,308,l),
(110,240,l),
(126,167,l),
(373,233,l)
);
},
{
closed = 1;
nodes = (
(77,216,l),
(149,201,l),
(218,443,l),
(143,463,l)
);
}
);
width = 500;
}
);
unicode = 8601;
},
{
glyphname = leftArrow;
lastChange = "2021-06-12 15:42:05 +0000";
layers = (
{
layerId = m01;
shapes = (
{
closed = 1;
nodes = (
(460,375,l),
(40,375,l),
(40,305,l),
(460,305,l)
);
},
{
closed = 1;
nodes = (
(300,245,l),
(80,368,l),
(40,305,l),
(261,177,l)
);
},
{
closed = 1;
nodes = (
(40,375,l),
(80,313,l),
(300,435,l),
(261,503,l)
);
}
);
width = 500;
}
);
unicode = 8592;
},
{
glyphname = northWestArrow;
lastChange = "2021-06-12 15:42:19 +0000";
layers = (
{
layerId = m01;
shapes = (
{
closed = 1;
nodes = (
(423,216,l),
(126,513,l),
(77,464,l),
(374,167,l)
);
},
{
closed = 1;
nodes = (
(218,237,l),
(150,480,l),
(77,464,l),
(143,217,l)
);
},
{
closed = 1;
nodes = (
(126,513,l),
(111,441,l),
(353,372,l),
(373,447,l)
);
}
);
width = 500;
}
);
unicode = 8598;
},
{
glyphname = leftRightArrow;
lastChange = "2021-06-12 15:43:57 +0000";
layers = (
{
layerId = m01;
shapes = (
{
closed = 1;
nodes = (
(40,305,l),
(460,305,l),
(460,375,l),
(40,375,l)
);
},
{
closed = 1;
nodes = (
(269,442,l),
(420,313,l),
(460,375,l),
(312,499,l)
);
},
{
closed = 1;
nodes = (
(460,305,l),
(421,367,l),
(270,238,l),
(312,181,l)
);
},
{
closed = 1;
nodes = (
(40,375,l),
(80,313,l),
(231,442,l),
(188,499,l)
);
},
{
closed = 1;
nodes = (
(230,238,l),
(79,367,l),
(40,305,l),
(188,181,l)
);
}
);
width = 500;
}
);
unicode = 8596;
},
{
glyphname = upDownArrow;
lastChange = "2021-06-12 15:44:14 +0000";
layers = (
{
layerId = m01;
shapes = (
{
closed = 1;
nodes = (
(285,130,l),
(285,550,l),
(215,550,l),
(215,130,l)
);
},
{
closed = 1;
nodes = (
(148,359,l),
(277,510,l),
(215,550,l),
(91,402,l)
);
},
{
closed = 1;
nodes = (
(285,550,l),
(223,511,l),
(352,360,l),
(409,402,l)
);
},
{
closed = 1;
nodes = (
(215,130,l),
(277,170,l),
(148,321,l),
(91,278,l)
);
},
{
closed = 1;
nodes = (
(352,320,l),
(223,169,l),
(285,130,l),
(409,278,l)
);
}
);
width = 500;
}
);
unicode = 8597;
},
{
glyphname = dottedCircle;
lastChange = "2021-06-13 03:40:55 +0000";
layers = (
{
layerId = m01;
shapes = (
{
closed = 1;
nodes = (
(495,249,o),
(460,382,o),
(357,441,cs),
(255,500,o),
(122,464,o),
(63,362,cs),
(3,258,o),
(40,128,o),
(142,69,cs),
(245,9,o),
(376,43,o),
(436,147,cs)
);
},
{
closed = 1;
nodes = (
(361,68,o),
(245,38,o),
(154,90,cs),
(65,142,o),
(32,258,o),
(85,350,cs),
(137,440,o),
(255,471,o),
(344,419,cs),
(435,367,o),
(466,250,o),
(414,160,cs)
);
},
{
closed = 1;
nodes = (
(132,97,l),
(328,436,l),
(312,445,l),
(116,106,l)
);
},
{
closed = 1;
nodes = (
(83,145,l),
(257,447,l),
(242,456,l),
(68,154,l)
);
},
{
closed = 1;
nodes = (
(60,220,l),
(183,432,l),
(167,441,l),
(45,229,l)
);
},
{
closed = 1;
nodes = (
(383,406,l),
(367,415,l),
(171,76,l),
(187,67,l)
);
},
{
closed = 1;
nodes = (
(427,356,l),
(411,365,l),
(237,64,l),
(253,55,l)
);
},
{
closed = 1;
nodes = (
(454,278,l),
(438,287,l),
(316,75,l),
(332,66,l)
);
}
);
width = 500;
}
);
unicode = 9676;
},
{
glyphname = lozenge;
lastChange = "2021-06-13 03:49:41 +0000";
layers = (
{
layerId = m01;
shapes = (
{
closed = 1;
nodes = (
(105,341,l),
(250,120,l),
(393,341,l),
(250,561,l)
);
},
{
closed = 1;
nodes = (
(355,340,l),
(250,174,l),
(142,340,l),
(250,504,l)
);
}
);
width = 500;
}
);
unicode = 9674;
},
{
glyphname = grave;
lastChange = "2021-06-12 14:55:26 +0000";
layers = (
{
layerId = m01;
shapes = (
{
closed = 1;
nodes = (
(280,466,l),
(342,502,l),
(227,709,l),
(158,669,l)
);
}
);
width = 500;
}
);
unicode = 96;
},
{
glyphname = _bar.a;
lastChange = "2021-06-13 14:05:51 +0000";
layers = (
{
anchors = (
{
name = _abar;
pos = (210,250);
}
);
layerId = m01;
shapes = (
{
closed = 1;
nodes = (
(210,1,l),
(290,1,l),
(290,501,l),
(210,501,l)
);
}
);
width = 500;
}
);
},
